<mxfile host="app.diagrams.net" modified="2023-09-18T09:37:18.755Z" agent="Mozilla/5.0 (Windows NT 10.0; Win64; x64) AppleWebKit/537.36 (KHTML, like Gecko) Chrome/117.0.0.0 Safari/537.36" etag="jj21Jke7-IxJfToFBSr5" version="21.7.5" type="device" pages="4">
  <diagram name="Sezione pubblica" id="vnt8q7N9dYtEDmMCio7f">
    <mxGraphModel dx="1430" dy="826" grid="1" gridSize="10" guides="1" tooltips="1" connect="1" arrows="1" fold="1" page="1" pageScale="1" pageWidth="1169" pageHeight="827" math="0" shadow="0">
      <root>
        <mxCell id="0" />
        <mxCell id="1" parent="0" />
        <mxCell id="xF2PyRB2R9m202IZ_tPq-1" value="&lt;font style=&quot;font-size: 15px;&quot;&gt;Homepage&lt;/font&gt;" style="rounded=1;whiteSpace=wrap;html=1;" parent="1" vertex="1">
          <mxGeometry x="525" y="40" width="120" height="60" as="geometry" />
        </mxCell>
        <mxCell id="xF2PyRB2R9m202IZ_tPq-4" value="" style="edgeStyle=segmentEdgeStyle;endArrow=classic;html=1;curved=0;rounded=0;endSize=8;startSize=8;exitX=0.5;exitY=1;exitDx=0;exitDy=0;entryX=0.5;entryY=0;entryDx=0;entryDy=0;" parent="1" source="xF2PyRB2R9m202IZ_tPq-1" target="xF2PyRB2R9m202IZ_tPq-5" edge="1">
          <mxGeometry width="50" height="50" relative="1" as="geometry">
            <mxPoint x="665" y="100.00000000000011" as="sourcePoint" />
            <mxPoint x="170" y="170" as="targetPoint" />
            <Array as="points">
              <mxPoint x="585" y="120" />
              <mxPoint x="210" y="120" />
            </Array>
          </mxGeometry>
        </mxCell>
        <mxCell id="xF2PyRB2R9m202IZ_tPq-5" value="&lt;span style=&quot;font-size: 15px;&quot;&gt;Noleggi&lt;/span&gt;" style="rounded=1;whiteSpace=wrap;html=1;" parent="1" vertex="1">
          <mxGeometry x="150" y="170" width="120" height="60" as="geometry" />
        </mxCell>
        <mxCell id="xF2PyRB2R9m202IZ_tPq-6" value="" style="endArrow=classic;html=1;rounded=0;" parent="1" edge="1">
          <mxGeometry width="50" height="50" relative="1" as="geometry">
            <mxPoint x="400" y="120" as="sourcePoint" />
            <mxPoint x="400" y="170" as="targetPoint" />
          </mxGeometry>
        </mxCell>
        <mxCell id="xF2PyRB2R9m202IZ_tPq-7" value="&lt;span style=&quot;font-size: 15px;&quot;&gt;Contatti&lt;/span&gt;" style="rounded=1;whiteSpace=wrap;html=1;" parent="1" vertex="1">
          <mxGeometry x="340" y="170" width="120" height="60" as="geometry" />
        </mxCell>
        <mxCell id="xF2PyRB2R9m202IZ_tPq-8" value="" style="endArrow=classic;html=1;rounded=0;" parent="1" edge="1">
          <mxGeometry width="50" height="50" relative="1" as="geometry">
            <mxPoint x="209.76" y="230" as="sourcePoint" />
            <mxPoint x="210" y="280" as="targetPoint" />
          </mxGeometry>
        </mxCell>
        <mxCell id="xF2PyRB2R9m202IZ_tPq-10" value="&lt;span style=&quot;font-size: 15px;&quot;&gt;Dettagli auto&lt;/span&gt;" style="rounded=1;whiteSpace=wrap;html=1;" parent="1" vertex="1">
          <mxGeometry x="150" y="280" width="120" height="60" as="geometry" />
        </mxCell>
        <mxCell id="xF2PyRB2R9m202IZ_tPq-11" value="" style="endArrow=classic;html=1;rounded=0;" parent="1" edge="1">
          <mxGeometry width="50" height="50" relative="1" as="geometry">
            <mxPoint x="585" y="120" as="sourcePoint" />
            <mxPoint x="585" y="170" as="targetPoint" />
          </mxGeometry>
        </mxCell>
        <mxCell id="xF2PyRB2R9m202IZ_tPq-12" value="&lt;span style=&quot;font-size: 15px;&quot;&gt;Accedi&lt;/span&gt;" style="rounded=1;whiteSpace=wrap;html=1;" parent="1" vertex="1">
          <mxGeometry x="525" y="170" width="120" height="60" as="geometry" />
        </mxCell>
        <mxCell id="xF2PyRB2R9m202IZ_tPq-13" value="" style="edgeStyle=segmentEdgeStyle;endArrow=classic;html=1;curved=0;rounded=0;endSize=8;startSize=8;exitX=0.5;exitY=1;exitDx=0;exitDy=0;entryX=0.5;entryY=0;entryDx=0;entryDy=0;" parent="1" target="xF2PyRB2R9m202IZ_tPq-16" edge="1">
          <mxGeometry width="50" height="50" relative="1" as="geometry">
            <mxPoint x="585" y="100" as="sourcePoint" />
            <mxPoint x="960" y="160" as="targetPoint" />
            <Array as="points">
              <mxPoint x="585" y="120" />
              <mxPoint x="960" y="120" />
            </Array>
          </mxGeometry>
        </mxCell>
        <mxCell id="xF2PyRB2R9m202IZ_tPq-14" value="" style="endArrow=classic;html=1;rounded=0;" parent="1" edge="1">
          <mxGeometry width="50" height="50" relative="1" as="geometry">
            <mxPoint x="770" y="120" as="sourcePoint" />
            <mxPoint x="770" y="170" as="targetPoint" />
          </mxGeometry>
        </mxCell>
        <mxCell id="xF2PyRB2R9m202IZ_tPq-15" value="&lt;span style=&quot;font-size: 15px;&quot;&gt;Registrati&lt;/span&gt;" style="rounded=1;whiteSpace=wrap;html=1;" parent="1" vertex="1">
          <mxGeometry x="710" y="170" width="120" height="60" as="geometry" />
        </mxCell>
        <mxCell id="xF2PyRB2R9m202IZ_tPq-16" value="&lt;font style=&quot;font-size: 14px;&quot;&gt;Scarica la documentazione&lt;/font&gt;" style="rounded=1;whiteSpace=wrap;html=1;" parent="1" vertex="1">
          <mxGeometry x="900" y="170" width="120" height="60" as="geometry" />
        </mxCell>
        <mxCell id="xF2PyRB2R9m202IZ_tPq-18" value="&lt;font style=&quot;font-size: 14px;&quot;&gt;Area per gli&lt;br&gt;utenti loggati&lt;/font&gt;" style="ellipse;whiteSpace=wrap;html=1;" parent="1" vertex="1">
          <mxGeometry x="620" y="260" width="120" height="80" as="geometry" />
        </mxCell>
        <mxCell id="xF2PyRB2R9m202IZ_tPq-19" value="" style="edgeStyle=segmentEdgeStyle;endArrow=classic;html=1;curved=0;rounded=0;endSize=8;startSize=8;exitX=1;exitY=0.5;exitDx=0;exitDy=0;entryX=0;entryY=0.25;entryDx=0;entryDy=0;" parent="1" source="xF2PyRB2R9m202IZ_tPq-10" target="xF2PyRB2R9m202IZ_tPq-12" edge="1">
          <mxGeometry width="50" height="50" relative="1" as="geometry">
            <mxPoint x="560" y="300" as="sourcePoint" />
            <mxPoint x="500" y="200" as="targetPoint" />
            <Array as="points">
              <mxPoint x="270" y="300" />
              <mxPoint x="480" y="300" />
              <mxPoint x="480" y="185" />
            </Array>
          </mxGeometry>
        </mxCell>
        <mxCell id="xF2PyRB2R9m202IZ_tPq-20" value="" style="edgeStyle=segmentEdgeStyle;endArrow=classic;html=1;curved=0;rounded=0;endSize=8;startSize=8;exitX=0;exitY=0.75;exitDx=0;exitDy=0;entryX=1;entryY=0.75;entryDx=0;entryDy=0;" parent="1" source="xF2PyRB2R9m202IZ_tPq-12" target="xF2PyRB2R9m202IZ_tPq-10" edge="1">
          <mxGeometry width="50" height="50" relative="1" as="geometry">
            <mxPoint x="560" y="300" as="sourcePoint" />
            <mxPoint x="500" y="320" as="targetPoint" />
            <Array as="points">
              <mxPoint x="525" y="210" />
              <mxPoint x="500" y="210" />
              <mxPoint x="500" y="325" />
            </Array>
          </mxGeometry>
        </mxCell>
        <mxCell id="xF2PyRB2R9m202IZ_tPq-21" value="" style="edgeStyle=segmentEdgeStyle;endArrow=classic;html=1;curved=0;rounded=0;endSize=8;startSize=8;exitX=0.5;exitY=1;exitDx=0;exitDy=0;entryX=0;entryY=0.5;entryDx=0;entryDy=0;" parent="1" source="xF2PyRB2R9m202IZ_tPq-12" target="xF2PyRB2R9m202IZ_tPq-18" edge="1">
          <mxGeometry width="50" height="50" relative="1" as="geometry">
            <mxPoint x="560" y="300" as="sourcePoint" />
            <mxPoint x="585" y="300" as="targetPoint" />
            <Array as="points">
              <mxPoint x="585" y="300" />
            </Array>
          </mxGeometry>
        </mxCell>
        <mxCell id="xF2PyRB2R9m202IZ_tPq-22" value="" style="edgeStyle=segmentEdgeStyle;endArrow=classic;html=1;curved=0;rounded=0;endSize=8;startSize=8;exitX=0.5;exitY=1;exitDx=0;exitDy=0;entryX=1;entryY=0.5;entryDx=0;entryDy=0;" parent="1" source="xF2PyRB2R9m202IZ_tPq-15" target="xF2PyRB2R9m202IZ_tPq-18" edge="1">
          <mxGeometry width="50" height="50" relative="1" as="geometry">
            <mxPoint x="560" y="300" as="sourcePoint" />
            <mxPoint x="610" y="250" as="targetPoint" />
            <Array as="points">
              <mxPoint x="770" y="300" />
            </Array>
          </mxGeometry>
        </mxCell>
      </root>
    </mxGraphModel>
  </diagram>
  <diagram id="ODHf5XJ7-lmYpydLt7b0" name="Sezione clienti">
    <mxGraphModel dx="2074" dy="1198" grid="1" gridSize="10" guides="1" tooltips="1" connect="1" arrows="1" fold="1" page="1" pageScale="1" pageWidth="1169" pageHeight="827" math="0" shadow="0">
      <root>
        <mxCell id="0" />
        <mxCell id="1" parent="0" />
        <mxCell id="Q218Pk2ePA8SY8a8Blhl-1" value="&lt;font style=&quot;font-size: 15px;&quot;&gt;Homepage&lt;/font&gt;" style="rounded=1;whiteSpace=wrap;html=1;" parent="1" vertex="1">
          <mxGeometry x="540" y="40" width="120" height="60" as="geometry" />
        </mxCell>
        <mxCell id="Q218Pk2ePA8SY8a8Blhl-2" value="" style="edgeStyle=segmentEdgeStyle;endArrow=classic;html=1;curved=0;rounded=0;endSize=8;startSize=8;exitX=0.5;exitY=1;exitDx=0;exitDy=0;entryX=0.5;entryY=0;entryDx=0;entryDy=0;" parent="1" source="Q218Pk2ePA8SY8a8Blhl-1" target="Q218Pk2ePA8SY8a8Blhl-3" edge="1">
          <mxGeometry width="50" height="50" relative="1" as="geometry">
            <mxPoint x="755" y="100.00000000000011" as="sourcePoint" />
            <mxPoint x="260" y="170" as="targetPoint" />
            <Array as="points">
              <mxPoint x="600" y="120" />
              <mxPoint x="210" y="120" />
            </Array>
          </mxGeometry>
        </mxCell>
        <mxCell id="Q218Pk2ePA8SY8a8Blhl-3" value="&lt;span style=&quot;font-size: 15px;&quot;&gt;Noleggi&lt;/span&gt;" style="rounded=1;whiteSpace=wrap;html=1;" parent="1" vertex="1">
          <mxGeometry x="150" y="170" width="120" height="60" as="geometry" />
        </mxCell>
        <mxCell id="Q218Pk2ePA8SY8a8Blhl-4" value="" style="endArrow=classic;html=1;rounded=0;" parent="1" edge="1">
          <mxGeometry width="50" height="50" relative="1" as="geometry">
            <mxPoint x="520" y="120" as="sourcePoint" />
            <mxPoint x="520" y="170" as="targetPoint" />
          </mxGeometry>
        </mxCell>
        <mxCell id="Q218Pk2ePA8SY8a8Blhl-5" value="&lt;span style=&quot;font-size: 15px;&quot;&gt;Contatti&lt;/span&gt;" style="rounded=1;whiteSpace=wrap;html=1;" parent="1" vertex="1">
          <mxGeometry x="460" y="170" width="120" height="60" as="geometry" />
        </mxCell>
        <mxCell id="Q218Pk2ePA8SY8a8Blhl-6" value="" style="endArrow=classic;html=1;rounded=0;" parent="1" edge="1">
          <mxGeometry width="50" height="50" relative="1" as="geometry">
            <mxPoint x="209.76" y="230" as="sourcePoint" />
            <mxPoint x="210" y="280" as="targetPoint" />
          </mxGeometry>
        </mxCell>
        <mxCell id="Q218Pk2ePA8SY8a8Blhl-7" value="&lt;span style=&quot;font-size: 15px;&quot;&gt;Dettagli auto&lt;/span&gt;" style="rounded=1;whiteSpace=wrap;html=1;" parent="1" vertex="1">
          <mxGeometry x="150" y="280" width="120" height="60" as="geometry" />
        </mxCell>
        <mxCell id="Q218Pk2ePA8SY8a8Blhl-8" value="" style="endArrow=classic;html=1;rounded=0;" parent="1" edge="1">
          <mxGeometry width="50" height="50" relative="1" as="geometry">
            <mxPoint x="675" y="120" as="sourcePoint" />
            <mxPoint x="675" y="170" as="targetPoint" />
          </mxGeometry>
        </mxCell>
        <mxCell id="Q218Pk2ePA8SY8a8Blhl-9" value="&lt;span style=&quot;font-size: 15px;&quot;&gt;Logout&lt;/span&gt;" style="rounded=1;whiteSpace=wrap;html=1;" parent="1" vertex="1">
          <mxGeometry x="615" y="170" width="120" height="60" as="geometry" />
        </mxCell>
        <mxCell id="Q218Pk2ePA8SY8a8Blhl-10" value="" style="edgeStyle=segmentEdgeStyle;endArrow=classic;html=1;curved=0;rounded=0;endSize=8;startSize=8;exitX=0.5;exitY=1;exitDx=0;exitDy=0;entryX=0.5;entryY=0;entryDx=0;entryDy=0;" parent="1" source="Q218Pk2ePA8SY8a8Blhl-1" target="Q218Pk2ePA8SY8a8Blhl-13" edge="1">
          <mxGeometry width="50" height="50" relative="1" as="geometry">
            <mxPoint x="675" y="100" as="sourcePoint" />
            <mxPoint x="1050" y="160" as="targetPoint" />
            <Array as="points">
              <mxPoint x="600" y="120" />
              <mxPoint x="1010" y="120" />
            </Array>
          </mxGeometry>
        </mxCell>
        <mxCell id="Q218Pk2ePA8SY8a8Blhl-11" value="" style="endArrow=classic;html=1;rounded=0;" parent="1" edge="1">
          <mxGeometry width="50" height="50" relative="1" as="geometry">
            <mxPoint x="830" y="120" as="sourcePoint" />
            <mxPoint x="830" y="170" as="targetPoint" />
          </mxGeometry>
        </mxCell>
        <mxCell id="Q218Pk2ePA8SY8a8Blhl-12" value="&lt;span style=&quot;font-size: 15px;&quot;&gt;Account &amp;lt;username&amp;gt;&lt;/span&gt;" style="rounded=1;whiteSpace=wrap;html=1;" parent="1" vertex="1">
          <mxGeometry x="770" y="170" width="120" height="60" as="geometry" />
        </mxCell>
        <mxCell id="Q218Pk2ePA8SY8a8Blhl-13" value="&lt;font style=&quot;font-size: 14px;&quot;&gt;Scarica la documentazione&lt;/font&gt;" style="rounded=1;whiteSpace=wrap;html=1;" parent="1" vertex="1">
          <mxGeometry x="950" y="170" width="120" height="60" as="geometry" />
        </mxCell>
        <mxCell id="Q218Pk2ePA8SY8a8Blhl-14" value="&lt;span style=&quot;font-size: 14px;&quot;&gt;Homepage pubblica&lt;/span&gt;" style="ellipse;whiteSpace=wrap;html=1;" parent="1" vertex="1">
          <mxGeometry x="615" y="280" width="120" height="80" as="geometry" />
        </mxCell>
        <mxCell id="Q218Pk2ePA8SY8a8Blhl-17" value="" style="edgeStyle=segmentEdgeStyle;endArrow=classic;html=1;curved=0;rounded=0;endSize=8;startSize=8;exitX=0;exitY=0.5;exitDx=0;exitDy=0;entryX=0;entryY=0.5;entryDx=0;entryDy=0;" parent="1" source="Q218Pk2ePA8SY8a8Blhl-20" target="Q218Pk2ePA8SY8a8Blhl-3" edge="1">
          <mxGeometry width="50" height="50" relative="1" as="geometry">
            <mxPoint x="130" y="420" as="sourcePoint" />
            <mxPoint x="120" y="200" as="targetPoint" />
            <Array as="points">
              <mxPoint x="100" y="420" />
              <mxPoint x="100" y="200" />
            </Array>
          </mxGeometry>
        </mxCell>
        <mxCell id="Q218Pk2ePA8SY8a8Blhl-19" value="" style="endArrow=classic;html=1;rounded=0;" parent="1" edge="1">
          <mxGeometry width="50" height="50" relative="1" as="geometry">
            <mxPoint x="209.76" y="340" as="sourcePoint" />
            <mxPoint x="210" y="390" as="targetPoint" />
          </mxGeometry>
        </mxCell>
        <mxCell id="Q218Pk2ePA8SY8a8Blhl-20" value="&lt;span style=&quot;font-size: 15px;&quot;&gt;Noleggia auto&lt;/span&gt;" style="rounded=1;whiteSpace=wrap;html=1;" parent="1" vertex="1">
          <mxGeometry x="150" y="390" width="120" height="60" as="geometry" />
        </mxCell>
        <mxCell id="Q218Pk2ePA8SY8a8Blhl-21" value="" style="endArrow=classic;html=1;rounded=0;" parent="1" edge="1">
          <mxGeometry width="50" height="50" relative="1" as="geometry">
            <mxPoint x="674.66" y="230" as="sourcePoint" />
            <mxPoint x="674.66" y="280" as="targetPoint" />
          </mxGeometry>
        </mxCell>
        <mxCell id="Q218Pk2ePA8SY8a8Blhl-22" value="" style="endArrow=classic;html=1;rounded=0;" parent="1" edge="1">
          <mxGeometry width="50" height="50" relative="1" as="geometry">
            <mxPoint x="370" y="120" as="sourcePoint" />
            <mxPoint x="370" y="170" as="targetPoint" />
          </mxGeometry>
        </mxCell>
        <mxCell id="Q218Pk2ePA8SY8a8Blhl-23" value="&lt;span style=&quot;font-size: 15px;&quot;&gt;I miei noleggi&lt;/span&gt;" style="rounded=1;whiteSpace=wrap;html=1;" parent="1" vertex="1">
          <mxGeometry x="310" y="170" width="120" height="60" as="geometry" />
        </mxCell>
        <mxCell id="x5Sk096L6UsNEKGGa4Ea-1" value="" style="edgeStyle=segmentEdgeStyle;endArrow=classic;html=1;curved=0;rounded=0;endSize=8;startSize=8;exitX=1;exitY=0.5;exitDx=0;exitDy=0;entryX=0.5;entryY=1;entryDx=0;entryDy=0;" parent="1" source="Q218Pk2ePA8SY8a8Blhl-20" target="Q218Pk2ePA8SY8a8Blhl-23" edge="1">
          <mxGeometry width="50" height="50" relative="1" as="geometry">
            <mxPoint x="399.97" y="480" as="sourcePoint" />
            <mxPoint x="399.97" y="260" as="targetPoint" />
            <Array as="points">
              <mxPoint x="370" y="420" />
            </Array>
          </mxGeometry>
        </mxCell>
        <mxCell id="x5Sk096L6UsNEKGGa4Ea-2" value="" style="endArrow=classic;html=1;rounded=0;entryX=0;entryY=0.5;entryDx=0;entryDy=0;" parent="1" target="Q218Pk2ePA8SY8a8Blhl-7" edge="1">
          <mxGeometry width="50" height="50" relative="1" as="geometry">
            <mxPoint x="100" y="310" as="sourcePoint" />
            <mxPoint x="70" y="320" as="targetPoint" />
          </mxGeometry>
        </mxCell>
        <mxCell id="x5Sk096L6UsNEKGGa4Ea-3" value="Error" style="text;html=1;strokeColor=none;fillColor=none;align=center;verticalAlign=middle;whiteSpace=wrap;rounded=0;" parent="1" vertex="1">
          <mxGeometry x="95" y="390" width="60" height="30" as="geometry" />
        </mxCell>
        <mxCell id="x5Sk096L6UsNEKGGa4Ea-5" value="Success" style="text;html=1;strokeColor=none;fillColor=none;align=center;verticalAlign=middle;whiteSpace=wrap;rounded=0;" parent="1" vertex="1">
          <mxGeometry x="271" y="390" width="60" height="30" as="geometry" />
        </mxCell>
        <mxCell id="WIkRiFqH5ICgM_BQx5cu-1" value="" style="endArrow=classic;html=1;rounded=0;" parent="1" edge="1">
          <mxGeometry width="50" height="50" relative="1" as="geometry">
            <mxPoint x="830" y="230" as="sourcePoint" />
            <mxPoint x="830" y="280" as="targetPoint" />
          </mxGeometry>
        </mxCell>
        <mxCell id="WIkRiFqH5ICgM_BQx5cu-2" value="&lt;span style=&quot;font-size: 15px;&quot;&gt;Modifica&lt;/span&gt;" style="rounded=1;whiteSpace=wrap;html=1;" parent="1" vertex="1">
          <mxGeometry x="770" y="280" width="120" height="60" as="geometry" />
        </mxCell>
        <mxCell id="WIkRiFqH5ICgM_BQx5cu-3" value="" style="edgeStyle=segmentEdgeStyle;endArrow=classic;html=1;curved=0;rounded=0;endSize=8;startSize=8;entryX=1;entryY=0.5;entryDx=0;entryDy=0;" parent="1" edge="1">
          <mxGeometry width="50" height="50" relative="1" as="geometry">
            <mxPoint x="890" y="310" as="sourcePoint" />
            <mxPoint x="890" y="200" as="targetPoint" />
            <Array as="points">
              <mxPoint x="920" y="310" />
              <mxPoint x="920" y="200" />
            </Array>
          </mxGeometry>
        </mxCell>
      </root>
    </mxGraphModel>
  </diagram>
  <diagram id="DDjaNMoAfnpl9KFk4gQr" name="Sezione staff">
    <mxGraphModel dx="1430" dy="826" grid="1" gridSize="10" guides="1" tooltips="1" connect="1" arrows="1" fold="1" page="1" pageScale="1" pageWidth="1169" pageHeight="827" math="0" shadow="0">
      <root>
        <mxCell id="0" />
        <mxCell id="1" parent="0" />
        <mxCell id="hCIOfwa8HaT54egEuxn5-1" value="&lt;font style=&quot;font-size: 15px;&quot;&gt;Homepage&lt;/font&gt;" style="rounded=1;whiteSpace=wrap;html=1;" parent="1" vertex="1">
          <mxGeometry x="645" y="60" width="120" height="60" as="geometry" />
        </mxCell>
        <mxCell id="hCIOfwa8HaT54egEuxn5-2" value="" style="edgeStyle=segmentEdgeStyle;endArrow=classic;html=1;curved=0;rounded=0;endSize=8;startSize=8;exitX=0.5;exitY=1;exitDx=0;exitDy=0;entryX=0.5;entryY=0;entryDx=0;entryDy=0;" parent="1" source="hCIOfwa8HaT54egEuxn5-1" target="hCIOfwa8HaT54egEuxn5-3" edge="1">
          <mxGeometry width="50" height="50" relative="1" as="geometry">
            <mxPoint x="860" y="120.00000000000011" as="sourcePoint" />
            <mxPoint x="365" y="190" as="targetPoint" />
            <Array as="points">
              <mxPoint x="705" y="140" />
              <mxPoint x="365" y="140" />
            </Array>
          </mxGeometry>
        </mxCell>
        <mxCell id="hCIOfwa8HaT54egEuxn5-3" value="&lt;span style=&quot;font-size: 15px;&quot;&gt;Gestione auto&lt;/span&gt;" style="rounded=1;whiteSpace=wrap;html=1;" parent="1" vertex="1">
          <mxGeometry x="304.97" y="190" width="120" height="60" as="geometry" />
        </mxCell>
        <mxCell id="hCIOfwa8HaT54egEuxn5-4" value="" style="endArrow=classic;html=1;rounded=0;" parent="1" edge="1">
          <mxGeometry width="50" height="50" relative="1" as="geometry">
            <mxPoint x="655" y="140" as="sourcePoint" />
            <mxPoint x="655" y="190" as="targetPoint" />
          </mxGeometry>
        </mxCell>
        <mxCell id="hCIOfwa8HaT54egEuxn5-5" value="&lt;span style=&quot;font-size: 15px;&quot;&gt;Storico noleggi&lt;/span&gt;" style="rounded=1;whiteSpace=wrap;html=1;" parent="1" vertex="1">
          <mxGeometry x="595" y="190" width="120" height="60" as="geometry" />
        </mxCell>
        <mxCell id="hCIOfwa8HaT54egEuxn5-6" value="" style="endArrow=classic;html=1;rounded=0;" parent="1" edge="1">
          <mxGeometry width="50" height="50" relative="1" as="geometry">
            <mxPoint x="364.73" y="250" as="sourcePoint" />
            <mxPoint x="364.97" y="300" as="targetPoint" />
          </mxGeometry>
        </mxCell>
        <mxCell id="hCIOfwa8HaT54egEuxn5-7" value="&lt;span style=&quot;font-size: 15px;&quot;&gt;Elimina&lt;/span&gt;" style="rounded=1;whiteSpace=wrap;html=1;" parent="1" vertex="1">
          <mxGeometry x="464.97" y="300" width="120" height="60" as="geometry" />
        </mxCell>
        <mxCell id="hCIOfwa8HaT54egEuxn5-8" value="" style="endArrow=classic;html=1;rounded=0;" parent="1" edge="1">
          <mxGeometry width="50" height="50" relative="1" as="geometry">
            <mxPoint x="825" y="140" as="sourcePoint" />
            <mxPoint x="825" y="190" as="targetPoint" />
          </mxGeometry>
        </mxCell>
        <mxCell id="hCIOfwa8HaT54egEuxn5-9" value="&lt;span style=&quot;font-size: 15px;&quot;&gt;Logout&lt;/span&gt;" style="rounded=1;whiteSpace=wrap;html=1;" parent="1" vertex="1">
          <mxGeometry x="765" y="190" width="120" height="60" as="geometry" />
        </mxCell>
        <mxCell id="hCIOfwa8HaT54egEuxn5-10" value="" style="edgeStyle=segmentEdgeStyle;endArrow=classic;html=1;curved=0;rounded=0;endSize=8;startSize=8;exitX=0.5;exitY=1;exitDx=0;exitDy=0;entryX=0.5;entryY=0;entryDx=0;entryDy=0;" parent="1" source="hCIOfwa8HaT54egEuxn5-1" target="hCIOfwa8HaT54egEuxn5-13" edge="1">
          <mxGeometry width="50" height="50" relative="1" as="geometry">
            <mxPoint x="780" y="120" as="sourcePoint" />
            <mxPoint x="1155" y="180" as="targetPoint" />
            <Array as="points">
              <mxPoint x="705" y="140" />
              <mxPoint x="995" y="140" />
            </Array>
          </mxGeometry>
        </mxCell>
        <mxCell id="hCIOfwa8HaT54egEuxn5-13" value="&lt;font style=&quot;font-size: 14px;&quot;&gt;Scarica la documentazione&lt;/font&gt;" style="rounded=1;whiteSpace=wrap;html=1;" parent="1" vertex="1">
          <mxGeometry x="935" y="190" width="120" height="60" as="geometry" />
        </mxCell>
        <mxCell id="hCIOfwa8HaT54egEuxn5-14" value="&lt;span style=&quot;font-size: 14px;&quot;&gt;Homepage pubblica&lt;/span&gt;" style="ellipse;whiteSpace=wrap;html=1;" parent="1" vertex="1">
          <mxGeometry x="765" y="300" width="120" height="80" as="geometry" />
        </mxCell>
        <mxCell id="hCIOfwa8HaT54egEuxn5-18" value="" style="endArrow=classic;html=1;rounded=0;" parent="1" edge="1">
          <mxGeometry width="50" height="50" relative="1" as="geometry">
            <mxPoint x="824.66" y="250" as="sourcePoint" />
            <mxPoint x="824.66" y="300" as="targetPoint" />
          </mxGeometry>
        </mxCell>
        <mxCell id="qSz6qRqki7i3gSpqio2_-1" value="&lt;span style=&quot;font-size: 15px;&quot;&gt;Modifica&lt;/span&gt;" style="rounded=1;whiteSpace=wrap;html=1;" parent="1" vertex="1">
          <mxGeometry x="304.97" y="300" width="120" height="60" as="geometry" />
        </mxCell>
        <mxCell id="qSz6qRqki7i3gSpqio2_-4" value="&lt;span style=&quot;font-size: 15px;&quot;&gt;Nuova auto&lt;/span&gt;" style="rounded=1;whiteSpace=wrap;html=1;" parent="1" vertex="1">
          <mxGeometry x="144.97" y="300" width="120" height="60" as="geometry" />
        </mxCell>
        <mxCell id="qSz6qRqki7i3gSpqio2_-7" value="" style="edgeStyle=segmentEdgeStyle;endArrow=classic;html=1;curved=0;rounded=0;endSize=8;startSize=8;entryX=0.5;entryY=0;entryDx=0;entryDy=0;" parent="1" target="hCIOfwa8HaT54egEuxn5-7" edge="1">
          <mxGeometry width="50" height="50" relative="1" as="geometry">
            <mxPoint x="364.97" y="270" as="sourcePoint" />
            <mxPoint x="744.97" y="410" as="targetPoint" />
          </mxGeometry>
        </mxCell>
        <mxCell id="qSz6qRqki7i3gSpqio2_-11" value="" style="edgeStyle=segmentEdgeStyle;endArrow=classic;html=1;curved=0;rounded=0;endSize=8;startSize=8;entryX=0.5;entryY=0;entryDx=0;entryDy=0;" parent="1" target="qSz6qRqki7i3gSpqio2_-4" edge="1">
          <mxGeometry width="50" height="50" relative="1" as="geometry">
            <mxPoint x="364.97" y="270" as="sourcePoint" />
            <mxPoint x="744.97" y="410" as="targetPoint" />
          </mxGeometry>
        </mxCell>
        <mxCell id="qSz6qRqki7i3gSpqio2_-12" value="" style="edgeStyle=segmentEdgeStyle;endArrow=classic;html=1;curved=0;rounded=0;endSize=8;startSize=8;entryX=0;entryY=0.5;entryDx=0;entryDy=0;exitX=0.5;exitY=1;exitDx=0;exitDy=0;" parent="1" source="qSz6qRqki7i3gSpqio2_-4" target="hCIOfwa8HaT54egEuxn5-3" edge="1">
          <mxGeometry width="50" height="50" relative="1" as="geometry">
            <mxPoint x="204.97" y="390" as="sourcePoint" />
            <mxPoint x="134.97" y="220" as="targetPoint" />
            <Array as="points">
              <mxPoint x="205" y="400" />
              <mxPoint x="120" y="400" />
              <mxPoint x="120" y="220" />
            </Array>
          </mxGeometry>
        </mxCell>
        <mxCell id="qSz6qRqki7i3gSpqio2_-13" value="" style="edgeStyle=segmentEdgeStyle;endArrow=classic;html=1;curved=0;rounded=0;endSize=8;startSize=8;exitX=0.5;exitY=1;exitDx=0;exitDy=0;" parent="1" source="qSz6qRqki7i3gSpqio2_-1" edge="1">
          <mxGeometry width="50" height="50" relative="1" as="geometry">
            <mxPoint x="684.97" y="460" as="sourcePoint" />
            <mxPoint x="205" y="400" as="targetPoint" />
            <Array as="points">
              <mxPoint x="365" y="400" />
              <mxPoint x="205" y="400" />
            </Array>
          </mxGeometry>
        </mxCell>
        <mxCell id="qSz6qRqki7i3gSpqio2_-14" value="" style="edgeStyle=segmentEdgeStyle;endArrow=classic;html=1;curved=0;rounded=0;endSize=8;startSize=8;exitX=0.5;exitY=1;exitDx=0;exitDy=0;" parent="1" edge="1">
          <mxGeometry width="50" height="50" relative="1" as="geometry">
            <mxPoint x="524.97" y="360" as="sourcePoint" />
            <mxPoint x="365" y="400" as="targetPoint" />
            <Array as="points">
              <mxPoint x="525" y="400" />
            </Array>
          </mxGeometry>
        </mxCell>
      </root>
    </mxGraphModel>
  </diagram>
  <diagram id="EowW6i_BDSfPrg6b1GMu" name="Sezione admin">
    <mxGraphModel dx="1430" dy="826" grid="1" gridSize="10" guides="1" tooltips="1" connect="1" arrows="1" fold="1" page="1" pageScale="1" pageWidth="1169" pageHeight="827" math="0" shadow="0">
      <root>
        <mxCell id="0" />
        <mxCell id="1" parent="0" />
        <mxCell id="FM0LKNDdmjaiQFgaa7Q0-1" value="&lt;font style=&quot;font-size: 15px;&quot;&gt;Homepage&lt;/font&gt;" style="rounded=1;whiteSpace=wrap;html=1;" vertex="1" parent="1">
          <mxGeometry x="555" y="50" width="120" height="60" as="geometry" />
        </mxCell>
        <mxCell id="FM0LKNDdmjaiQFgaa7Q0-2" value="" style="edgeStyle=segmentEdgeStyle;endArrow=classic;html=1;curved=0;rounded=0;endSize=8;startSize=8;exitX=0.5;exitY=1;exitDx=0;exitDy=0;entryX=0.5;entryY=0;entryDx=0;entryDy=0;" edge="1" parent="1" source="FM0LKNDdmjaiQFgaa7Q0-1" target="FM0LKNDdmjaiQFgaa7Q0-21">
          <mxGeometry width="50" height="50" relative="1" as="geometry">
            <mxPoint x="985" y="120.00000000000011" as="sourcePoint" />
            <mxPoint x="490" y="190" as="targetPoint" />
            <Array as="points">
              <mxPoint x="615" y="140" />
              <mxPoint x="275" y="140" />
            </Array>
          </mxGeometry>
        </mxCell>
        <mxCell id="FM0LKNDdmjaiQFgaa7Q0-3" value="&lt;span style=&quot;font-size: 15px;&quot;&gt;Gestione auto&lt;/span&gt;" style="rounded=1;whiteSpace=wrap;html=1;" vertex="1" parent="1">
          <mxGeometry x="489.94000000000005" y="190" width="120" height="60" as="geometry" />
        </mxCell>
        <mxCell id="FM0LKNDdmjaiQFgaa7Q0-4" value="" style="endArrow=classic;html=1;rounded=0;" edge="1" parent="1">
          <mxGeometry width="50" height="50" relative="1" as="geometry">
            <mxPoint x="750" y="140" as="sourcePoint" />
            <mxPoint x="750" y="190" as="targetPoint" />
          </mxGeometry>
        </mxCell>
        <mxCell id="FM0LKNDdmjaiQFgaa7Q0-5" value="&lt;span style=&quot;font-size: 15px;&quot;&gt;Storico noleggi&lt;/span&gt;" style="rounded=1;whiteSpace=wrap;html=1;" vertex="1" parent="1">
          <mxGeometry x="690" y="190" width="120" height="60" as="geometry" />
        </mxCell>
        <mxCell id="FM0LKNDdmjaiQFgaa7Q0-6" value="" style="endArrow=classic;html=1;rounded=0;" edge="1" parent="1">
          <mxGeometry width="50" height="50" relative="1" as="geometry">
            <mxPoint x="549.7" y="250" as="sourcePoint" />
            <mxPoint x="549.94" y="300" as="targetPoint" />
          </mxGeometry>
        </mxCell>
        <mxCell id="FM0LKNDdmjaiQFgaa7Q0-7" value="&lt;span style=&quot;font-size: 15px;&quot;&gt;Elimina&lt;/span&gt;" style="rounded=1;whiteSpace=wrap;html=1;" vertex="1" parent="1">
          <mxGeometry x="625" y="300" width="120" height="60" as="geometry" />
        </mxCell>
        <mxCell id="FM0LKNDdmjaiQFgaa7Q0-9" value="&lt;span style=&quot;font-size: 15px;&quot;&gt;Logout&lt;/span&gt;" style="rounded=1;whiteSpace=wrap;html=1;" vertex="1" parent="1">
          <mxGeometry x="995" y="190" width="120" height="60" as="geometry" />
        </mxCell>
        <mxCell id="FM0LKNDdmjaiQFgaa7Q0-10" value="" style="edgeStyle=segmentEdgeStyle;endArrow=classic;html=1;curved=0;rounded=0;endSize=8;startSize=8;exitX=0.5;exitY=1;exitDx=0;exitDy=0;entryX=0.5;entryY=0;entryDx=0;entryDy=0;" edge="1" parent="1" source="FM0LKNDdmjaiQFgaa7Q0-1" target="FM0LKNDdmjaiQFgaa7Q0-9">
          <mxGeometry width="50" height="50" relative="1" as="geometry">
            <mxPoint x="905" y="120" as="sourcePoint" />
            <mxPoint x="1245" y="190" as="targetPoint" />
            <Array as="points">
              <mxPoint x="615" y="140" />
              <mxPoint x="1055" y="140" />
            </Array>
          </mxGeometry>
        </mxCell>
        <mxCell id="FM0LKNDdmjaiQFgaa7Q0-12" value="&lt;span style=&quot;font-size: 14px;&quot;&gt;Homepage pubblica&lt;/span&gt;" style="ellipse;whiteSpace=wrap;html=1;" vertex="1" parent="1">
          <mxGeometry x="995" y="300" width="120" height="80" as="geometry" />
        </mxCell>
        <mxCell id="FM0LKNDdmjaiQFgaa7Q0-13" value="" style="endArrow=classic;html=1;rounded=0;" edge="1" parent="1">
          <mxGeometry width="50" height="50" relative="1" as="geometry">
            <mxPoint x="1054.6599999999999" y="250" as="sourcePoint" />
            <mxPoint x="1054.6599999999999" y="300" as="targetPoint" />
          </mxGeometry>
        </mxCell>
        <mxCell id="FM0LKNDdmjaiQFgaa7Q0-14" value="&lt;span style=&quot;font-size: 15px;&quot;&gt;Modifica&lt;/span&gt;" style="rounded=1;whiteSpace=wrap;html=1;" vertex="1" parent="1">
          <mxGeometry x="489.94000000000005" y="300" width="120" height="60" as="geometry" />
        </mxCell>
        <mxCell id="FM0LKNDdmjaiQFgaa7Q0-15" value="&lt;span style=&quot;font-size: 15px;&quot;&gt;Nuova auto&lt;/span&gt;" style="rounded=1;whiteSpace=wrap;html=1;" vertex="1" parent="1">
          <mxGeometry x="355" y="300" width="120" height="60" as="geometry" />
        </mxCell>
        <mxCell id="FM0LKNDdmjaiQFgaa7Q0-16" value="" style="edgeStyle=segmentEdgeStyle;endArrow=classic;html=1;curved=0;rounded=0;endSize=8;startSize=8;entryX=0.5;entryY=0;entryDx=0;entryDy=0;" edge="1" parent="1" target="FM0LKNDdmjaiQFgaa7Q0-7">
          <mxGeometry width="50" height="50" relative="1" as="geometry">
            <mxPoint x="549.94" y="270" as="sourcePoint" />
            <mxPoint x="929.94" y="410" as="targetPoint" />
          </mxGeometry>
        </mxCell>
        <mxCell id="FM0LKNDdmjaiQFgaa7Q0-17" value="" style="edgeStyle=segmentEdgeStyle;endArrow=classic;html=1;curved=0;rounded=0;endSize=8;startSize=8;entryX=0.5;entryY=0;entryDx=0;entryDy=0;" edge="1" parent="1" target="FM0LKNDdmjaiQFgaa7Q0-15">
          <mxGeometry width="50" height="50" relative="1" as="geometry">
            <mxPoint x="549.94" y="270" as="sourcePoint" />
            <mxPoint x="929.94" y="410" as="targetPoint" />
          </mxGeometry>
        </mxCell>
        <mxCell id="FM0LKNDdmjaiQFgaa7Q0-18" value="" style="edgeStyle=segmentEdgeStyle;endArrow=classic;html=1;curved=0;rounded=0;endSize=8;startSize=8;entryX=0;entryY=0.5;entryDx=0;entryDy=0;exitX=0.5;exitY=1;exitDx=0;exitDy=0;" edge="1" parent="1" source="FM0LKNDdmjaiQFgaa7Q0-15" target="FM0LKNDdmjaiQFgaa7Q0-3">
          <mxGeometry width="50" height="50" relative="1" as="geometry">
            <mxPoint x="389.94000000000005" y="390" as="sourcePoint" />
            <mxPoint x="319.94" y="220" as="targetPoint" />
            <Array as="points">
              <mxPoint x="415" y="390" />
              <mxPoint x="335" y="390" />
              <mxPoint x="335" y="220" />
            </Array>
          </mxGeometry>
        </mxCell>
        <mxCell id="FM0LKNDdmjaiQFgaa7Q0-20" value="" style="edgeStyle=segmentEdgeStyle;endArrow=classic;html=1;curved=0;rounded=0;endSize=8;startSize=8;exitX=0.5;exitY=1;exitDx=0;exitDy=0;" edge="1" parent="1" source="FM0LKNDdmjaiQFgaa7Q0-7">
          <mxGeometry width="50" height="50" relative="1" as="geometry">
            <mxPoint x="709.94" y="360" as="sourcePoint" />
            <mxPoint x="550" y="390" as="targetPoint" />
            <Array as="points">
              <mxPoint x="685" y="390" />
              <mxPoint x="550" y="390" />
            </Array>
          </mxGeometry>
        </mxCell>
        <mxCell id="FM0LKNDdmjaiQFgaa7Q0-21" value="&lt;span style=&quot;font-size: 15px;&quot;&gt;Staff&lt;/span&gt;" style="rounded=1;whiteSpace=wrap;html=1;" vertex="1" parent="1">
          <mxGeometry x="215" y="490" width="120" height="60" as="geometry" />
        </mxCell>
        <mxCell id="FM0LKNDdmjaiQFgaa7Q0-22" value="" style="endArrow=classic;html=1;rounded=0;" edge="1" parent="1">
          <mxGeometry width="50" height="50" relative="1" as="geometry">
            <mxPoint x="549.6" y="140" as="sourcePoint" />
            <mxPoint x="549.6" y="190" as="targetPoint" />
          </mxGeometry>
        </mxCell>
        <mxCell id="FM0LKNDdmjaiQFgaa7Q0-23" value="" style="endArrow=classic;html=1;rounded=0;" edge="1" parent="1">
          <mxGeometry width="50" height="50" relative="1" as="geometry">
            <mxPoint x="575" y="440" as="sourcePoint" />
            <mxPoint x="575" y="490" as="targetPoint" />
          </mxGeometry>
        </mxCell>
        <mxCell id="FM0LKNDdmjaiQFgaa7Q0-24" value="&lt;span style=&quot;font-size: 15px;&quot;&gt;Clienti&lt;/span&gt;" style="rounded=1;whiteSpace=wrap;html=1;" vertex="1" parent="1">
          <mxGeometry x="515" y="490" width="120" height="60" as="geometry" />
        </mxCell>
        <mxCell id="FM0LKNDdmjaiQFgaa7Q0-26" value="&lt;span style=&quot;font-size: 15px;&quot;&gt;FAQ&lt;/span&gt;" style="rounded=1;whiteSpace=wrap;html=1;" vertex="1" parent="1">
          <mxGeometry x="815" y="490" width="120" height="60" as="geometry" />
        </mxCell>
        <mxCell id="FM0LKNDdmjaiQFgaa7Q0-27" value="" style="endArrow=classic;html=1;rounded=0;" edge="1" parent="1">
          <mxGeometry width="50" height="50" relative="1" as="geometry">
            <mxPoint x="905" y="140" as="sourcePoint" />
            <mxPoint x="905" y="190" as="targetPoint" />
          </mxGeometry>
        </mxCell>
        <mxCell id="FM0LKNDdmjaiQFgaa7Q0-28" value="&lt;span style=&quot;font-size: 15px;&quot;&gt;Statistiche&lt;/span&gt;" style="rounded=1;whiteSpace=wrap;html=1;" vertex="1" parent="1">
          <mxGeometry x="845" y="190" width="120" height="60" as="geometry" />
        </mxCell>
        <mxCell id="FM0LKNDdmjaiQFgaa7Q0-29" value="" style="endArrow=classic;html=1;rounded=0;entryX=0.5;entryY=0;entryDx=0;entryDy=0;" edge="1" parent="1" target="FM0LKNDdmjaiQFgaa7Q0-31">
          <mxGeometry width="50" height="50" relative="1" as="geometry">
            <mxPoint x="275" y="550" as="sourcePoint" />
            <mxPoint x="269.97" y="600" as="targetPoint" />
          </mxGeometry>
        </mxCell>
        <mxCell id="FM0LKNDdmjaiQFgaa7Q0-30" value="&lt;span style=&quot;font-size: 15px;&quot;&gt;Elimina&lt;/span&gt;" style="rounded=1;whiteSpace=wrap;html=1;" vertex="1" parent="1">
          <mxGeometry x="355" y="596" width="120" height="60" as="geometry" />
        </mxCell>
        <mxCell id="FM0LKNDdmjaiQFgaa7Q0-31" value="&lt;span style=&quot;font-size: 15px;&quot;&gt;Modifica&lt;/span&gt;" style="rounded=1;whiteSpace=wrap;html=1;" vertex="1" parent="1">
          <mxGeometry x="215" y="596" width="120" height="60" as="geometry" />
        </mxCell>
        <mxCell id="FM0LKNDdmjaiQFgaa7Q0-32" value="&lt;span style=&quot;font-size: 15px;&quot;&gt;Nuova auto&lt;/span&gt;" style="rounded=1;whiteSpace=wrap;html=1;" vertex="1" parent="1">
          <mxGeometry x="75" y="596" width="120" height="60" as="geometry" />
        </mxCell>
        <mxCell id="FM0LKNDdmjaiQFgaa7Q0-33" value="" style="edgeStyle=segmentEdgeStyle;endArrow=classic;html=1;curved=0;rounded=0;endSize=8;startSize=8;entryX=0.5;entryY=0;entryDx=0;entryDy=0;" edge="1" parent="1" target="FM0LKNDdmjaiQFgaa7Q0-30">
          <mxGeometry width="50" height="50" relative="1" as="geometry">
            <mxPoint x="269.97" y="570" as="sourcePoint" />
            <mxPoint x="649.97" y="710" as="targetPoint" />
          </mxGeometry>
        </mxCell>
        <mxCell id="FM0LKNDdmjaiQFgaa7Q0-34" value="" style="edgeStyle=segmentEdgeStyle;endArrow=classic;html=1;curved=0;rounded=0;endSize=8;startSize=8;entryX=0.5;entryY=0;entryDx=0;entryDy=0;" edge="1" parent="1" target="FM0LKNDdmjaiQFgaa7Q0-32">
          <mxGeometry width="50" height="50" relative="1" as="geometry">
            <mxPoint x="269.97" y="570" as="sourcePoint" />
            <mxPoint x="649.97" y="710" as="targetPoint" />
          </mxGeometry>
        </mxCell>
        <mxCell id="FM0LKNDdmjaiQFgaa7Q0-35" value="" style="edgeStyle=segmentEdgeStyle;endArrow=classic;html=1;curved=0;rounded=0;endSize=8;startSize=8;entryX=0;entryY=0.5;entryDx=0;entryDy=0;exitX=0.5;exitY=1;exitDx=0;exitDy=0;" edge="1" parent="1" source="FM0LKNDdmjaiQFgaa7Q0-32" target="FM0LKNDdmjaiQFgaa7Q0-21">
          <mxGeometry width="50" height="50" relative="1" as="geometry">
            <mxPoint x="109.97000000000003" y="690" as="sourcePoint" />
            <mxPoint x="210.02999999999997" y="520" as="targetPoint" />
            <Array as="points">
              <mxPoint x="135" y="690" />
              <mxPoint x="55" y="690" />
              <mxPoint x="55" y="520" />
            </Array>
          </mxGeometry>
        </mxCell>
        <mxCell id="FM0LKNDdmjaiQFgaa7Q0-36" value="" style="edgeStyle=segmentEdgeStyle;endArrow=classic;html=1;curved=0;rounded=0;endSize=8;startSize=8;exitX=0.5;exitY=1;exitDx=0;exitDy=0;" edge="1" parent="1" source="FM0LKNDdmjaiQFgaa7Q0-31">
          <mxGeometry width="50" height="50" relative="1" as="geometry">
            <mxPoint x="589.97" y="760" as="sourcePoint" />
            <mxPoint x="135" y="690" as="targetPoint" />
            <Array as="points">
              <mxPoint x="275" y="690" />
              <mxPoint x="135" y="690" />
            </Array>
          </mxGeometry>
        </mxCell>
        <mxCell id="FM0LKNDdmjaiQFgaa7Q0-37" value="" style="edgeStyle=segmentEdgeStyle;endArrow=classic;html=1;curved=0;rounded=0;endSize=8;startSize=8;exitX=0.5;exitY=1;exitDx=0;exitDy=0;" edge="1" parent="1" source="FM0LKNDdmjaiQFgaa7Q0-30">
          <mxGeometry width="50" height="50" relative="1" as="geometry">
            <mxPoint x="429.97" y="660" as="sourcePoint" />
            <mxPoint x="275" y="690" as="targetPoint" />
            <Array as="points">
              <mxPoint x="415" y="690" />
              <mxPoint x="275" y="690" />
            </Array>
          </mxGeometry>
        </mxCell>
        <mxCell id="FM0LKNDdmjaiQFgaa7Q0-38" value="" style="edgeStyle=segmentEdgeStyle;endArrow=classic;html=1;curved=0;rounded=0;endSize=8;startSize=8;exitX=0.5;exitY=1;exitDx=0;exitDy=0;" edge="1" parent="1">
          <mxGeometry width="50" height="50" relative="1" as="geometry">
            <mxPoint x="550.03" y="360" as="sourcePoint" />
            <mxPoint x="415" y="390" as="targetPoint" />
            <Array as="points">
              <mxPoint x="550" y="390" />
              <mxPoint x="415" y="390" />
            </Array>
          </mxGeometry>
        </mxCell>
        <mxCell id="FM0LKNDdmjaiQFgaa7Q0-39" value="&lt;span style=&quot;font-size: 15px;&quot;&gt;Elimina&lt;/span&gt;" style="rounded=1;whiteSpace=wrap;html=1;" vertex="1" parent="1">
          <mxGeometry x="515" y="596" width="120" height="60" as="geometry" />
        </mxCell>
        <mxCell id="FM0LKNDdmjaiQFgaa7Q0-40" value="" style="endArrow=classic;html=1;rounded=0;entryX=0.5;entryY=0;entryDx=0;entryDy=0;" edge="1" parent="1">
          <mxGeometry width="50" height="50" relative="1" as="geometry">
            <mxPoint x="574.71" y="550" as="sourcePoint" />
            <mxPoint x="574.71" y="596" as="targetPoint" />
          </mxGeometry>
        </mxCell>
        <mxCell id="FM0LKNDdmjaiQFgaa7Q0-41" value="" style="edgeStyle=segmentEdgeStyle;endArrow=classic;html=1;curved=0;rounded=0;endSize=8;startSize=8;exitX=0.5;exitY=1;exitDx=0;exitDy=0;entryX=0;entryY=0.5;entryDx=0;entryDy=0;" edge="1" parent="1" source="FM0LKNDdmjaiQFgaa7Q0-39" target="FM0LKNDdmjaiQFgaa7Q0-24">
          <mxGeometry width="50" height="50" relative="1" as="geometry">
            <mxPoint x="635" y="680" as="sourcePoint" />
            <mxPoint x="495" y="520" as="targetPoint" />
            <Array as="points">
              <mxPoint x="575" y="690" />
              <mxPoint x="495" y="690" />
              <mxPoint x="495" y="520" />
            </Array>
          </mxGeometry>
        </mxCell>
        <mxCell id="FM0LKNDdmjaiQFgaa7Q0-53" value="&lt;font style=&quot;font-size: 14px;&quot;&gt;Scarica la documentazione&lt;/font&gt;" style="rounded=1;whiteSpace=wrap;html=1;" vertex="1" parent="1">
          <mxGeometry x="95" y="190" width="120" height="60" as="geometry" />
        </mxCell>
        <mxCell id="FM0LKNDdmjaiQFgaa7Q0-54" value="" style="edgeStyle=segmentEdgeStyle;endArrow=classic;html=1;curved=0;rounded=0;endSize=8;startSize=8;entryX=0.5;entryY=0;entryDx=0;entryDy=0;" edge="1" parent="1" target="FM0LKNDdmjaiQFgaa7Q0-53">
          <mxGeometry width="50" height="50" relative="1" as="geometry">
            <mxPoint x="275" y="140" as="sourcePoint" />
            <mxPoint x="405" y="330" as="targetPoint" />
          </mxGeometry>
        </mxCell>
        <mxCell id="FM0LKNDdmjaiQFgaa7Q0-55" value="" style="endArrow=classic;html=1;rounded=0;entryX=0.5;entryY=0;entryDx=0;entryDy=0;" edge="1" parent="1" target="FM0LKNDdmjaiQFgaa7Q0-57">
          <mxGeometry width="50" height="50" relative="1" as="geometry">
            <mxPoint x="875" y="550" as="sourcePoint" />
            <mxPoint x="869.97" y="600" as="targetPoint" />
          </mxGeometry>
        </mxCell>
        <mxCell id="FM0LKNDdmjaiQFgaa7Q0-56" value="&lt;span style=&quot;font-size: 15px;&quot;&gt;Elimina&lt;/span&gt;" style="rounded=1;whiteSpace=wrap;html=1;" vertex="1" parent="1">
          <mxGeometry x="955" y="596" width="120" height="60" as="geometry" />
        </mxCell>
        <mxCell id="FM0LKNDdmjaiQFgaa7Q0-57" value="&lt;span style=&quot;font-size: 15px;&quot;&gt;Modifica&lt;/span&gt;" style="rounded=1;whiteSpace=wrap;html=1;" vertex="1" parent="1">
          <mxGeometry x="815" y="596" width="120" height="60" as="geometry" />
        </mxCell>
        <mxCell id="FM0LKNDdmjaiQFgaa7Q0-58" value="&lt;span style=&quot;font-size: 15px;&quot;&gt;Nuova auto&lt;/span&gt;" style="rounded=1;whiteSpace=wrap;html=1;" vertex="1" parent="1">
          <mxGeometry x="675" y="596" width="120" height="60" as="geometry" />
        </mxCell>
        <mxCell id="FM0LKNDdmjaiQFgaa7Q0-59" value="" style="edgeStyle=segmentEdgeStyle;endArrow=classic;html=1;curved=0;rounded=0;endSize=8;startSize=8;entryX=0.5;entryY=0;entryDx=0;entryDy=0;" edge="1" parent="1" target="FM0LKNDdmjaiQFgaa7Q0-56">
          <mxGeometry width="50" height="50" relative="1" as="geometry">
            <mxPoint x="869.97" y="570" as="sourcePoint" />
            <mxPoint x="1249.97" y="710" as="targetPoint" />
          </mxGeometry>
        </mxCell>
        <mxCell id="FM0LKNDdmjaiQFgaa7Q0-60" value="" style="edgeStyle=segmentEdgeStyle;endArrow=classic;html=1;curved=0;rounded=0;endSize=8;startSize=8;entryX=0.5;entryY=0;entryDx=0;entryDy=0;" edge="1" parent="1" target="FM0LKNDdmjaiQFgaa7Q0-58">
          <mxGeometry width="50" height="50" relative="1" as="geometry">
            <mxPoint x="869.97" y="570" as="sourcePoint" />
            <mxPoint x="1249.97" y="710" as="targetPoint" />
          </mxGeometry>
        </mxCell>
        <mxCell id="FM0LKNDdmjaiQFgaa7Q0-61" value="" style="edgeStyle=segmentEdgeStyle;endArrow=classic;html=1;curved=0;rounded=0;endSize=8;startSize=8;entryX=0;entryY=0.5;entryDx=0;entryDy=0;exitX=0.5;exitY=1;exitDx=0;exitDy=0;" edge="1" parent="1" source="FM0LKNDdmjaiQFgaa7Q0-58">
          <mxGeometry width="50" height="50" relative="1" as="geometry">
            <mxPoint x="709.97" y="690" as="sourcePoint" />
            <mxPoint x="815" y="520" as="targetPoint" />
            <Array as="points">
              <mxPoint x="735" y="690" />
              <mxPoint x="655" y="690" />
              <mxPoint x="655" y="520" />
            </Array>
          </mxGeometry>
        </mxCell>
        <mxCell id="FM0LKNDdmjaiQFgaa7Q0-62" value="" style="edgeStyle=segmentEdgeStyle;endArrow=classic;html=1;curved=0;rounded=0;endSize=8;startSize=8;exitX=0.5;exitY=1;exitDx=0;exitDy=0;" edge="1" parent="1" source="FM0LKNDdmjaiQFgaa7Q0-57">
          <mxGeometry width="50" height="50" relative="1" as="geometry">
            <mxPoint x="1189.97" y="760" as="sourcePoint" />
            <mxPoint x="735" y="690" as="targetPoint" />
            <Array as="points">
              <mxPoint x="875" y="690" />
              <mxPoint x="735" y="690" />
            </Array>
          </mxGeometry>
        </mxCell>
        <mxCell id="FM0LKNDdmjaiQFgaa7Q0-63" value="" style="edgeStyle=segmentEdgeStyle;endArrow=classic;html=1;curved=0;rounded=0;endSize=8;startSize=8;exitX=0.5;exitY=1;exitDx=0;exitDy=0;" edge="1" parent="1" source="FM0LKNDdmjaiQFgaa7Q0-56">
          <mxGeometry width="50" height="50" relative="1" as="geometry">
            <mxPoint x="1029.97" y="660" as="sourcePoint" />
            <mxPoint x="875" y="690" as="targetPoint" />
            <Array as="points">
              <mxPoint x="1015" y="690" />
              <mxPoint x="875" y="690" />
            </Array>
          </mxGeometry>
        </mxCell>
        <mxCell id="FM0LKNDdmjaiQFgaa7Q0-64" value="" style="edgeStyle=segmentEdgeStyle;endArrow=classic;html=1;curved=0;rounded=0;endSize=8;startSize=8;entryX=0.5;entryY=0;entryDx=0;entryDy=0;" edge="1" parent="1" target="FM0LKNDdmjaiQFgaa7Q0-26">
          <mxGeometry width="50" height="50" relative="1" as="geometry">
            <mxPoint x="275" y="440" as="sourcePoint" />
            <mxPoint x="825" y="440" as="targetPoint" />
          </mxGeometry>
        </mxCell>
      </root>
    </mxGraphModel>
  </diagram>
</mxfile>
